<svg xmlns="http://www.w3.org/2000/svg" viewBox="0 0 194.44 108.15"><defs><linearGradient id="a" y1="57.99" x2="77.88" y2="57.99" gradientUnits="userSpaceOnUse"><stop offset="0" stop-color="#6c2d1a"/><stop offset=".44" stop-color="#ee2924"/><stop offset="1" stop-color="#4b1414"/></linearGradient><linearGradient id="b" x1="71.99" y1="41.51" x2="0" y2="41.51" gradientUnits="userSpaceOnUse"><stop offset="0" stop-color="#a31d21"/><stop offset=".42" stop-color="#ee2c25"/><stop offset="1" stop-color="#842719"/></linearGradient><linearGradient id="c" y1="45.42" x2="68.58" y2="45.42" gradientUnits="userSpaceOnUse"><stop offset="0" stop-color="#6d0d12"/><stop offset=".51" stop-color="#bf2026"/><stop offset="1" stop-color="#691c15"/></linearGradient></defs><title>logo-hor</title><path fill="#ee3724" d="M0 54.84L40.11 0l39.63 54.84-39.63 53.31L0 54.84z"/><path opacity=".72" fill="url(#a)" d="M0 54.84l40.11 53.31 37.77-50.82-43.5-49.5L0 54.84z"/><path fill="url(#b)" d="M0 54.84l21.2 28.17 50.79-38.9L40.11 0 0 54.84z"/><path fill="url(#c)" d="M0 54.84L34.38 7.83l34.2 38.89L21.2 83.01 0 54.84z"/><path fill="#fff" d="M64.31 28.08h-13.9v27H29.7v-27h-14v67h14v-27h20.7l.01 27h13.91l-.01-67z"/><path d="M40.03 29.08l-21.5 50.38 1.51 2 7.66-18.38h24.71l7.62 18.28 1.34-1.81zm-11.64 32l11.65-28 11.66 28H28.39z" fill="#b4b4b4"/><path d="M108.97 53.52h-4.34V43.41H93.78v10.11h-4.34V30.38h4.34v10h10.85v-10h4.34v23.14zm15.14.26c-7 0-11.75-5-11.75-11.83s4.74-11.87 11.75-11.87 11.72 5 11.72 11.83-4.72 11.87-11.72 11.87zm0-20c-4.53 0-7.35 3.09-7.35 8.16s2.82 8.14 7.35 8.14 7.3-3.07 7.3-8.15-2.77-8.14-7.3-8.14zm29.72 10.46V30.38h4.31v13.86c0 5.52-3.67 9.54-9.6 9.54s-9.59-4-9.59-9.54V30.38h4.31v13.84c0 3.52 2 5.83 5.28 5.83s5.29-2.29 5.29-5.81zm21.08-9.65a1 1 0 0 1-1 .64c-.86 0-2-1.6-4.66-1.6-2.37 0-3.59 1.2-3.59 2.91 0 4.39 10.68 2 10.68 9.73 0 4.18-2.93 7.51-8 7.51a10.85 10.85 0 0 1-7.6-3l1.25-2.06a1.26 1.26 0 0 1 1-.53c1.07 0 2.32 2.11 5.51 2.11 2.45 0 3.86-1.2 3.86-3.38 0-4.9-10.66-1.65-10.66-10.12 0-3.39 2.75-6.64 7.57-6.64a9.65 9.65 0 0 1 6.72 2.43zm19.37-4.21v3.43h-10.26v6.42h8.08v3.31h-8.08v6.54h10.26v3.44H179.7V30.38h14.6z" fill="#aeb4b7"/><path d="M99.86 72.76h-1.87a.82.82 0 0 1-.81-.55l-1-2.66h-5.39l-1 2.66a.85.85 0 0 1-.8.55h-1.88l5.11-13h2.48zm-8.43-4.92h4.15L94 63.51c-.14-.39-.32-.92-.5-1.53-.17.61-.33 1.15-.49 1.55zm14.7 4.92h-5v-13h5a6.51 6.51 0 1 1 0 13zm0-11.09h-2.53v9.16h2.53c2.54 0 4.11-1.73 4.11-4.58s-1.54-4.58-4.11-4.58zm6.67-1.93h2a.82.82 0 0 1 .81.55l3.06 7.94a14.36 14.36 0 0 1 .56 1.83 10.6 10.6 0 0 1 .51-1.83l2.96-7.94a.86.86 0 0 1 .8-.55h2l-5.26 13h-2.19zm23.9 13.02h-1.87a.82.82 0 0 1-.81-.55l-1-2.66h-5.32l-1 2.66a.85.85 0 0 1-.8.55h-1.88l5.11-13h2.48zm-8.43-4.92h4.15l-1.58-4.33c-.14-.39-.32-.92-.5-1.53-.17.61-.33 1.15-.49 1.55zm11.85-7.76l6.83 8.71a11.07 11.07 0 0 1-.06-1.18v-7.87h2.13v13h-1.25a.92.92 0 0 1-.85-.41l-6.81-8.67c0 .39.05.77.05 1.09v8h-2.13v-13h1.27a.79.79 0 0 1 .82.33zm20.67-.34v2h-3.92v11h-2.42v-11h-3.93v-2h10.27zm11.62 13.02h-1.87a.82.82 0 0 1-.81-.55l-1-2.66h-5.39l-1 2.66a.85.85 0 0 1-.8.55h-1.84l5.11-13h2.48zm-8.43-4.92h4.15l-1.58-4.33c-.14-.39-.32-.92-.5-1.53-.17.61-.33 1.15-.49 1.55zm17.83 2.58v-2.34h-1.63a.46.46 0 0 1-.5-.45v-1.4h4.33v5.27a7.9 7.9 0 0 1-5 1.4 6.38 6.38 0 0 1-6.54-6.65c0-3.93 2.63-6.65 6.77-6.65a6.67 6.67 0 0 1 4.74 1.7l-.7 1.1a.62.62 0 0 1-.55.33.8.8 0 0 1-.44-.14 5.27 5.27 0 0 0-3.12-.93c-2.57 0-4.21 1.81-4.21 4.59 0 3 1.77 4.73 4.26 4.73a5.6 5.6 0 0 0 2.59-.56zm12.63-10.68v1.93h-5.74v3.61h4.55v1.86h-4.55v3.68h5.77v1.94h-8.21v-13h8.21z" fill="#696868"/></svg>