<svg xmlns="http://www.w3.org/2000/svg" width="54.58" height="66.06" viewBox="0 0 54.58 66.06"><title>map-marker</title><circle cx="27.33" cy="27.12" r="22.34" fill="#fff"/><path d="M27.29,0A27.29,27.29,0,0,0,0,27.29C0,48,27.29,66.06,27.29,66.06S54.58,48,54.58,27.29A27.29,27.29,0,0,0,27.29,0Zm0,48.5A21.21,21.21,0,1,1,48.5,27.29,21.21,21.21,0,0,1,27.29,48.5Z" fill="#575656"/><polygon points="15.03 27.2 27.37 10.33 39.56 27.2 27.37 43.6 15.03 27.2" fill="#d00005"/><polygon points="34.81 18.97 30.53 18.97 30.53 27.27 24.16 27.27 24.16 18.97 19.86 18.97 19.86 39.58 24.16 39.58 24.16 31.27 30.53 31.27 30.53 39.58 34.81 39.58 34.81 18.97" fill="#fff"/></svg>