<svg xmlns="http://www.w3.org/2000/svg" viewBox="0 0 118 118"><title>noun_11661_cc-01</title><path d="M59.6,35a2,2,0,0,0-1.22,0c-7.28,2.31-15.94,8.25-15.94,23.45,0,10.72,5.47,18.6,15.79,22.81a2,2,0,0,0,.77.15,2,2,0,0,0,.76-0.15C70.09,77,75.54,69.19,75.54,58.47,75.54,43.27,66.87,37.33,59.6,35Zm4,25H61v2.2a2,2,0,0,1-4,0V60H54.32a2,2,0,0,1,0-4H57V52.85a2,2,0,1,1,4,0V56h2.66a2,2,0,0,1,0,4h0Z"/><path d="M76,84.47A47.57,47.57,0,0,1,58.23,81.3a2,2,0,0,1,0-3.74C67,74,71.49,67.54,71.49,58.48c0-10.24-4.41-16.83-13.16-19.59a2,2,0,0,1,0-3.86,33.5,33.5,0,0,1,9.89-1.51c18.22,0,30.7,7.19,33.3,19.23a21.25,21.25,0,0,1-7.08,20.71,16.07,16.07,0,0,0,3.21.32h0q0.69,0,1.39-.06A2,2,0,0,1,100.79,77C97.41,81.39,87.23,84.47,76,84.47Zm-11.77-5.4A47.7,47.7,0,0,0,76,80.47a45.67,45.67,0,0,0,17.29-3,20.1,20.1,0,0,1-4.47-1.61,2,2,0,0,1,0-3.66c6.46-2.92,10.24-11.07,8.63-18.54-1-4.83-5.91-16-29.27-16a23,23,0,0,0-2.77.13c5.38,3.4,10.12,9.57,10.12,20.77C75.54,67.5,71.66,74.52,64.28,79.07Z"/><path d="M41.88,84.47a58.44,58.44,0,0,1-7-.43C26.4,83,19.79,80.38,17.17,77a2,2,0,0,1,1.76-3.25,16.43,16.43,0,0,0,4.6-.27,21.33,21.33,0,0,1-7.18-20.17c1-5.5,6-18.41,29.76-19.65a2,2,0,0,1,.21,4c-20.88,1.09-25.13,11.8-26,16.36-1.41,7.44,2.34,15.24,8.7,18.13a2,2,0,0,1,0,3.66,20,20,0,0,1-4.34,1.54c7.49,3.19,22.14,4.86,33.53.19a2,2,0,1,1,1.54,3.74A48,48,0,0,1,41.88,84.47Z"/></svg>