<svg xmlns="http://www.w3.org/2000/svg" viewBox="0 0 84.99 50.34"><title>noun_11661_cc</title><path d="M43.09,1.48a1.93,1.93,0,0,0-1.21,0C34.69,3.76,26.13,9.63,26.13,24.65c0,10.59,5.4,18.38,15.6,22.54a2,2,0,0,0,.76.15,1.93,1.93,0,0,0,.75-0.15C53.45,43,58.84,35.24,58.84,24.65,58.84,9.63,50.27,3.76,43.09,1.48Zm4,24.69H44.49v2.17a2,2,0,1,1-4,0V26.17H37.87a2,2,0,0,1,0-4h2.62V19.09a2,2,0,0,1,4,0v3.08h2.63A2,2,0,0,1,47.12,26.17Z"/><path d="M59.34,50.34a47,47,0,0,1-17.61-3.14,2,2,0,0,1,0-3.7c8.7-3.55,13.11-9.89,13.11-18.84,0-10.12-4.36-16.63-13-19.36a2,2,0,0,1,0-3.81A33.1,33.1,0,0,1,51.61,0c18,0,30.33,7.1,32.9,19a21,21,0,0,1-7,20.46,15.88,15.88,0,0,0,3.17.32h0q0.68,0,1.37-.06a2,2,0,0,1,1.74,3.22C80.45,47.29,70.39,50.34,59.34,50.34ZM47.71,45a47.13,47.13,0,0,0,11.63,1.38,45.12,45.12,0,0,0,17.08-3A19.86,19.86,0,0,1,72,41.79a2,2,0,0,1,0-3.62c6.38-2.89,10.12-10.94,8.53-18.32C79.58,15.08,74.69,4,51.61,4c-0.67,0-1.62,0-2.74.13,5.32,3.36,10,9.46,10,20.52C58.84,33.57,55,40.5,47.71,45Z"/><path d="M25.58,50.34a57.74,57.74,0,0,1-6.94-.42c-8.36-1-14.89-3.63-17.48-7a2,2,0,0,1,1.74-3.21,16.23,16.23,0,0,0,4.55-.27A21.08,21.08,0,0,1,.36,19.51C1.38,14.08,6.3,1.32,29.76.09a2,2,0,0,1,.21,4C9.34,5.17,5.14,15.75,4.29,20.25c-1.39,7.35,2.31,15.06,8.6,17.91a2,2,0,0,1,0,3.62A19.81,19.81,0,0,1,8.6,43.3c7.4,3.15,21.88,4.8,33.13.19a2,2,0,1,1,1.52,3.7A47.47,47.47,0,0,1,25.58,50.34Z"/></svg>