<svg xmlns="http://www.w3.org/2000/svg" viewBox="0 0 118 118"><title>noun_365676_cc</title><circle cx="60.69" cy="47" r="2.74"/><path d="M89.91,82.24L67.29,39.06V24.31h0.06a4.29,4.29,0,1,0,0-8.58H50.64a4.29,4.29,0,1,0,0,8.58h0.06V39.06L28.09,82.25A18.19,18.19,0,0,0,26,89.85a12.32,12.32,0,0,0,1.79,6.38v0l0,0a12.41,12.41,0,0,0,10.6,6H79.58A12.44,12.44,0,0,0,92,89.84,18.28,18.28,0,0,0,89.91,82.24ZM52.56,57.13a2.74,2.74,0,0,0-2.74,2.74h-7L53.37,39.72V21.64H50.64a1.63,1.63,0,1,1,0-3.25H67.35a1.63,1.63,0,1,1,0,3.25H64.63V39.72L75.18,59.87H55.29A2.74,2.74,0,0,0,52.56,57.13ZM63.43,92.92a7.43,7.43,0,1,1,7.43-7.43A7.43,7.43,0,0,1,63.43,92.92ZM73.85,75a3.62,3.62,0,1,1,3.62-3.62A3.62,3.62,0,0,1,73.85,75Z"/><path d="M68.9,85.48A5.47,5.47,0,1,1,63.43,80,5.47,5.47,0,0,1,68.9,85.48Z"/><circle cx="73.85" cy="71.4" r="1.92"/></svg>