<svg xmlns="http://www.w3.org/2000/svg" viewBox="0 0 118 118"><title>noun_145568_cc</title><path d="M43.67,42.15a1.41,1.41,0,0,0,2,.16,1.65,1.65,0,0,0,.53-1.24,7,7,0,1,1,7,7A1.65,1.65,0,0,0,52,48.6a1.41,1.41,0,0,0,.16,2l7,7,7-7a3.56,3.56,0,0,1,5.09-.16,3.82,3.82,0,0,1,1.16,2.69v0.05a4.85,4.85,0,1,0,4.82-4.82H77.19a3.81,3.81,0,0,1-2.69-1.16,3.56,3.56,0,0,1,.16-5.09l7.06-7.06L65.19,18.57a8.75,8.75,0,0,0-12.38,0L36.45,34.92Z"/><path d="M76.18,43.68a1.41,1.41,0,0,0-.16,2,1.65,1.65,0,0,0,1.24.53,7,7,0,1,1-7,7A1.65,1.65,0,0,0,69.73,52a1.41,1.41,0,0,0-2,.16l-7,7,3.95,3.95a3.56,3.56,0,0,1,.16,5.09,3.81,3.81,0,0,1-2.69,1.16H62.05a4.84,4.84,0,1,0,4.82,4.82V74.13A3.82,3.82,0,0,1,68,71.44a3.56,3.56,0,0,1,5.09.16l10,10L99.44,65.19a8.75,8.75,0,0,0,0-12.38L83.24,36.62Z"/><path d="M42.36,74.44a1.41,1.41,0,0,0,.16-2,1.65,1.65,0,0,0-1.24-.53,7,7,0,1,1,7-7,1.65,1.65,0,0,0,.53,1.24,1.41,1.41,0,0,0,2-.16l6.79-6.79-7-7a3.56,3.56,0,0,1-.16-5.09,3.81,3.81,0,0,1,2.69-1.16h0.05a4.84,4.84,0,1,0-4.82-4.82v0.06a3.81,3.81,0,0,1-1.16,2.69,3.57,3.57,0,0,1-5.09-.16l-7.22-7.22L18.56,52.81a8.75,8.75,0,0,0,0,12.38L35.09,81.71Z"/><path d="M71.6,73.13a1.41,1.41,0,0,0-2-.16A1.65,1.65,0,0,0,69,74.21a7,7,0,1,1-7-7,1.65,1.65,0,0,0,1.24-.53,1.41,1.41,0,0,0-.16-2l-3.95-3.95-6.79,6.79a3.56,3.56,0,0,1-5.09.16,3.81,3.81,0,0,1-1.16-2.69V64.89a4.85,4.85,0,1,0-4.82,4.82h0.06A3.82,3.82,0,0,1,44,70.87,3.57,3.57,0,0,1,43.89,76l-7.28,7.28L52.81,99.44a8.76,8.76,0,0,0,12.38,0L81.55,83.08Z"/></svg>